{
    "asset" : {
        "generator" : "Khronos glTF Blender I/O v3.2.40",
        "version" : "2.0"
    },
    "scene" : 0,
    "scenes" : [
        {
            "name" : "Scene",
            "nodes" : [
                1
            ]
        }
    ],
    "nodes" : [
        {
            "mesh" : 0,
            "name" : "satellite.1",
            "translation" : [
                0,
                3.1194908618927,
                0
            ]
        },
        {
            "children" : [
                0
            ],
            "name" : "RootNode.0",
            "scale" : [
                0.009999999776482582,
                0.009999999776482582,
                0.009999999776482582
            ]
        }
    ],
    "materials" : [
        {
            "doubleSided" : true,
            "name" : "Material_0",
            "occlusionTexture" : {
                "index" : 0
            },
            "pbrMetallicRoughness" : {}
        }
    ],
    "meshes" : [
        {
            "name" : "Mesh_0",
            "primitives" : [
                {
                    "attributes" : {
                        "POSITION" : 0,
                        "NORMAL" : 1,
                        "TEXCOORD_0" : 2
                    },
                    "indices" : 3,
                    "material" : 0
                }
            ]
        }
    ],
    "textures" : [
        {
            "sampler" : 0,
            "source" : 0
        }
    ],
    "images" : [
        {
            "mimeType" : "image/png",
            "name" : "Image_3",
            "uri" : "Image_3.png"
        }
    ],
    "accessors" : [
        {
            "bufferView" : 0,
            "componentType" : 5126,
            "count" : 21703,
            "max" : [
                6.993002414703369,
                3.326683521270752,
                1.4471715688705444
            ],
            "min" : [
                -7.027789115905762,
                -3.1028478145599365,
                -1.5056431293487549
            ],
            "type" : "VEC3"
        },
        {
            "bufferView" : 1,
            "componentType" : 5126,
            "count" : 21703,
            "type" : "VEC3"
        },
        {
            "bufferView" : 2,
            "componentType" : 5126,
            "count" : 21703,
            "type" : "VEC2"
        },
        {
            "bufferView" : 3,
            "componentType" : 5123,
            "count" : 104943,
            "type" : "SCALAR"
        }
    ],
    "bufferViews" : [
        {
            "buffer" : 0,
            "byteLength" : 260436,
            "byteOffset" : 0
        },
        {
            "buffer" : 0,
            "byteLength" : 260436,
            "byteOffset" : 260436
        },
        {
            "buffer" : 0,
            "byteLength" : 173624,
            "byteOffset" : 520872
        },
        {
            "buffer" : 0,
            "byteLength" : 209886,
            "byteOffset" : 694496
        }
    ],
    "samplers" : [
        {
            "magFilter" : 9729,
            "minFilter" : 9987
        }
    ],
    "buffers" : [
        {
            "byteLength" : 904384,
            "uri" : "Satellite.bin"
        }
    ]
}
